<svg width="466" height="365" viewBox="0 0 466 365" fill="none" xmlns="http://www.w3.org/2000/svg">
<path d="M444.079 160.83C445.679 172.72 441.759 185.94 438.729 199.12C436.639 208.21 423.789 215.18 413.249 211.28C401.249 206.84 395.479 194.91 402.729 183.2C404.509 180.33 407.269 177.89 411.259 176.93C424.119 173.83 424.189 173.64 424.679 160.34C424.969 152.37 424.899 144.45 420.339 137.23C418.059 133.61 415.149 131.06 411.159 130.63C406.249 130.11 401.249 129.82 396.309 131.23C379.959 135.9 365.009 143.52 350.289 151.89C345.499 154.62 345.089 157.49 345.549 162.07C347.589 182.42 339.529 198.88 325.289 212.73C322.539 215.41 322.879 216.68 325.639 219.36C334.329 227.81 342.069 237.38 344.429 249.5C346.619 260.7 346.749 272.07 342.439 283.31C338.909 292.5 333.319 300.07 326.609 306.75C322.259 311.08 317.049 314.84 311.329 317.51C307.779 319.17 307.549 320.9 310.279 323.77C314.149 327.83 317.179 332.57 320.069 337.38C324.559 344.86 323.419 354.48 318.409 359.91C312.939 365.85 300.819 366.87 292.949 358.94C281.259 347.16 273.169 333.66 275.259 315.94C275.839 311.02 278.649 309.15 282.599 307.84C294.869 303.77 307.209 299.59 315.799 289.23C328.519 273.89 330.959 259.59 318.929 242.15C315.729 237.51 311.279 234.08 307.879 229.65C305.319 226.32 301.509 227.47 298.689 228.67C286.769 233.7 274.289 233.56 261.829 232.98C253.239 232.58 245.539 228.6 237.779 225.28C229.979 221.94 223.209 217.12 217.869 210.34C215.419 207.23 212.119 208.14 209.419 210.08C196.889 219.08 182.649 220.84 167.799 220.23C162.309 220.01 156.799 220 151.329 219.58C146.559 219.22 143.959 222.57 141.429 225.39C133.779 233.93 126.769 243.02 122.749 253.94C119.029 264.05 119.419 273.96 126.449 282.52C129.559 286.3 134.209 287.91 139.539 286.48C149.669 283.77 158.169 278.28 166.309 271.9C171.109 268.13 174.979 263.24 180.469 260.33C185.739 257.53 191.899 259.21 195.399 264.3C204.079 276.91 206.839 290.97 205.619 305.98C205.069 312.8 197.399 321.39 191.689 321.85C181.739 322.66 176.069 320.82 172.419 309.83C171.269 306.36 169.939 302.95 168.929 299.44C168.199 296.9 167.269 296.32 164.739 297.64C157.099 301.62 149.289 305.08 140.569 306.28C126.499 308.22 114.079 301.14 107.139 289.38C98.4587 274.66 99.4787 259.34 105.359 243.99C109.529 233.09 116.539 223.89 123.939 215.1C126.619 211.92 125.499 211.14 122.819 209.79C113.169 204.92 105.349 198.05 100.269 188.41C96.6087 181.47 94.4187 174.02 93.9287 166.2C93.3087 156.21 91.9087 155.26 81.8887 153.2C67.5687 150.26 54.6787 144.33 45.1787 132.43C35.7587 120.63 31.6787 107.18 30.8387 92.27C30.2787 82.4 30.4187 72.54 32.2487 62.99C34.0087 53.81 37.8587 44.97 42.8087 36.97C46.3287 31.29 49.9387 25.55 55.4687 21.21C58.3987 18.91 60.9687 17.21 64.7087 17.51C66.3687 17.64 68.0687 17.73 69.6987 17.5C76.8787 16.46 81.3187 20.13 85.2887 25.6C90.7787 33.16 87.7887 44.61 80.6287 50.29C74.3487 55.27 67.4987 55.12 60.3887 53.11C57.6687 52.34 57.0387 52.65 55.6587 55.66C49.4687 69.13 49.5087 83.19 51.1487 97.24C52.5087 108.96 57.8087 118.82 67.9487 126.02C75.6687 131.5 84.0087 134.23 93.1387 135.55C96.1787 135.99 98.3387 135.15 99.9987 132.74C103.439 127.72 106.759 122.61 110.309 117.67C111.859 115.52 110.879 113.82 109.799 112.2C108.499 110.26 107.609 108.13 106.489 106.13C98.1687 91.23 100.769 76.6 107.889 62.43C114.209 49.83 124.269 41.37 138.529 38.67C142.119 37.99 143.779 36.37 145.289 32.35C151.769 15.03 165.389 5.33004 184.919 3.56004C200.609 2.14004 213.179 8.61004 224.189 19.02C225.799 20.54 226.419 21.82 228.989 19.1C238.079 9.46004 248.289 1.38004 262.379 0.150039C271.319 -0.629961 279.619 1.70004 287.319 5.54004C294.849 9.29004 301.059 14.93 305.799 22.18C308.159 25.79 308.819 29.86 310.339 33.67C311.619 36.86 313.199 38.84 316.779 39.7C322.019 40.97 327.279 42.1 332.059 45.17C341.049 50.94 346.759 58.99 350.309 68.78C353.269 76.96 355.009 85.33 354.349 94.18C353.409 106.86 347.439 116.7 338.129 124.86C336.889 125.95 335.329 126.75 334.309 128.01C333.209 129.37 329.789 129.55 331.289 132.23C332.759 134.86 335.529 135.64 338.569 135.2C342.989 134.56 346.499 131.68 349.949 129.48C361.639 122.02 374.349 116.78 387.459 113.22C401.089 109.52 415.649 108.11 428.199 116.86C438.289 123.9 443.009 134.7 444.049 146.91C444.369 150.85 444.079 154.87 444.079 160.83ZM270.929 218.63C274.419 218.63 277.919 218.7 281.409 218.59C282.669 218.55 284.499 218.75 284.869 217.27C285.219 215.86 283.769 214.98 282.489 214.47C279.429 213.26 277.389 210.78 275.239 208.52C271.929 205.04 271.839 200.8 274.219 197C276.499 193.36 280.329 192.81 284.419 193.94C291.389 195.86 297.529 199.49 303.539 203.32C309.769 207.29 311.419 207.08 316.509 201.89C324.869 193.38 330.869 183.85 331.729 171.53C332.379 162.24 330.349 153.77 325.439 145.92C320.959 138.76 314.639 136.1 306.369 138.09C305.099 138.4 303.709 138.43 302.389 138.34C298.739 138.1 295.139 137.32 294.429 133.02C293.729 128.76 297.209 126.99 300.319 126.12C305.789 124.59 310.919 122.2 316.319 120.55C328.929 116.7 337.019 108.57 340.279 95.75C342.599 86.65 339.889 78.36 336.179 70.21C331.149 59.16 323.329 53.2 311.319 52.69C297.779 52.12 286.909 58.61 278.069 68.7C276.439 70.56 277.589 71.12 278.689 72.18C280.969 74.37 283.229 76.58 285.339 78.93C286.279 79.97 287.469 81.2 286.159 82.87C283.559 86.18 280.889 88.44 276.039 86.87C260.839 81.95 250.259 64.97 255.959 49.03C257.199 45.58 259.269 45.22 261.719 44.82C264.239 44.4 266.139 45.45 266.839 48.33C267.259 50.06 268.479 51.58 269.169 53.27C270.179 55.72 271.739 55.64 273.469 54.25C280.169 48.86 287.409 44.4 295.369 41.13C296.539 40.65 297.519 39.73 297.099 38.45C295.789 34.54 295.109 30.05 292.699 26.93C283.569 15.11 265.519 8.83004 252.779 17.03C250.009 18.81 247.319 20.74 244.759 22.71C238.679 27.4 233.749 33.5 233.939 41.43C234.239 53.39 232.259 64.55 226.349 74.96C225.199 76.98 226.159 78.28 227.509 79.77C233.679 86.58 239.329 93.9 240.779 103.21C243.579 121.22 238.979 136.76 224.199 148.47C218.339 153.11 217.739 154.32 220.429 160.51C223.879 168.46 224.859 176.57 222.859 184.88C220.899 193.03 223.709 199.38 229.769 204.25C241.739 213.91 255.179 219.78 270.929 218.63ZM112.669 135.51C116.299 136.94 119.139 138.43 122.169 139.15C126.689 140.24 129.319 143.14 129.519 147.37C129.729 151.74 126.879 154.8 122.699 156.18C118.579 157.53 114.299 158.3 109.969 158.35C107.499 158.38 106.939 159.4 106.969 161.69C107.189 178.18 118.819 194.19 134.169 200.18C151.389 206.91 168.849 208.68 186.999 205.19C199.669 202.76 208.049 194.25 209.329 184.77C211.379 169.57 210.269 160.99 195.979 152.78C191.789 150.37 187.309 148.6 183.259 146.03C180.719 144.42 178.899 142.32 180.339 138.96C181.749 135.67 184.019 133.93 187.789 134.66C190.939 135.27 193.749 136.7 196.619 138.02C207.279 142.92 214.979 141.78 221.079 132.78C231.359 117.61 231.769 104.01 217.919 90.04C215.919 88.02 214.199 88.36 212.189 89.53C204.609 93.94 196.209 94.39 187.979 93.25C180.509 92.21 173.959 93.87 167.089 96.22C159.079 98.96 150.669 98.12 142.429 96.85C139.799 96.45 137.639 94.56 135.629 92.82C133.119 90.65 133.339 87.66 134.129 84.93C134.969 82 137.569 83.1 139.639 83.23C145.939 83.65 152.249 84.48 158.539 84.41C169.489 84.29 176.689 76.64 176.729 65.78C176.739 61.95 176.849 58.11 176.689 54.29C176.579 51.64 177.339 49.66 179.889 48.75C182.589 47.79 184.959 48.79 186.519 50.94C188.269 53.34 189.389 56.06 190.039 59.09C191.409 65.46 189.699 71.7 189.789 78C189.809 79.63 189.279 81.81 192.009 81.27C197.639 80.16 203.419 79.48 207.959 75.23C217.309 66.47 221.049 55.91 220.029 43.08C219.499 36.38 216.599 31.2 212.259 26.98C204.519 19.45 194.919 16.42 184.039 17.56C174.549 18.56 159.149 26.09 157.649 39.13C156.879 45.83 157.069 52.38 157.369 59.02C157.439 60.68 157.669 62.34 157.609 64C157.509 66.82 156.039 68.71 153.269 69.38C150.509 70.04 148.829 68.98 147.159 66.5C144.649 62.76 144.689 58.26 142.689 54.44C141.959 53.05 141.959 51.37 139.289 52.26C122.979 57.73 113.989 73.94 115.399 89.85C115.739 93.72 116.299 97.5 118.529 101.17C123.639 109.6 131.049 115.08 139.539 119.33C143.789 121.45 148.339 124.22 152.849 119.4C157.089 114.87 162.259 111.64 167.949 109.26C177.229 105.39 186.699 105.32 196.279 107.97C200.519 109.14 201.539 112.15 200.789 116.07C200.069 119.84 197.289 120.49 194.029 120.46C188.869 120.42 183.679 120.72 178.539 120.38C172.429 119.98 167.769 123.17 163.939 126.84C155.259 135.14 153.659 148.79 159.489 159.28C161.239 162.42 163.559 165.26 165.719 168.16C169.349 173.04 168.309 177.43 162.529 178.94C159.079 179.84 156.449 176.98 154.129 174.75C145.149 166.11 141.909 154.97 142.519 143.08C142.869 136.23 139.969 133.15 134.569 130.84C132.749 130.06 130.989 129.14 129.209 128.27C125.199 126.31 121.509 124.68 117.939 129.55C116.579 131.43 114.909 133.33 112.669 135.51Z" fill="#511E53"/>
<path d="M13.7086 68.58C14.5786 79.91 12.8886 90.96 12.9386 102.05C12.9986 115.15 16.4086 127.2 23.7386 137.87C28.1586 144.3 34.3186 149.29 41.0286 153.46C44.8386 155.83 48.7886 158.06 52.5686 162.12C47.2586 162.6 42.8486 162.88 38.6586 161.4C27.3286 157.38 17.4786 151.1 10.8886 140.8C0.198627 124.09 -3.03137 106.3 3.03863 86.93C4.59863 81.95 7.21863 77.67 9.15863 72.99C9.96863 71.02 11.0986 69.17 13.7086 68.58Z" fill="#511E53"/>
<path d="M405.129 94.05C416.799 84.72 441.559 90.38 452.609 102.42C465.559 116.53 471.129 144.5 459.419 157.72C457.919 148.46 455.329 140.03 452.999 131.52C449.199 117.61 442.239 106.47 427.859 100.76C420.579 97.85 412.589 97.82 405.129 94.05Z" fill="#511E53"/>
<path d="M270.929 218.63C255.179 219.79 241.739 213.91 229.789 204.31C223.729 199.44 220.919 193.09 222.879 184.94C224.869 176.64 223.899 168.52 220.449 160.57C217.759 154.37 218.359 153.17 224.219 148.53C238.999 136.82 243.599 121.28 240.799 103.27C239.349 93.9501 233.699 86.64 227.529 79.83C226.189 78.35 225.229 77.0401 226.369 75.0201C232.289 64.6101 234.259 53.45 233.959 41.49C233.759 33.57 238.699 27.47 244.779 22.77C247.339 20.8 250.029 18.87 252.799 17.09C265.539 8.88005 283.599 15.16 292.719 26.99C295.129 30.11 295.809 34.59 297.119 38.51C297.549 39.79 296.569 40.7 295.389 41.19C287.429 44.46 280.189 48.93 273.489 54.31C271.759 55.7 270.199 55.78 269.189 53.33C268.499 51.65 267.279 50.13 266.859 48.39C266.159 45.5 264.259 44.46 261.739 44.88C259.299 45.28 257.219 45.64 255.979 49.09C250.269 65.03 260.859 82.01 276.059 86.93C280.899 88.5 283.579 86.24 286.179 82.93C287.489 81.26 286.299 80.03 285.359 78.99C283.249 76.65 280.979 74.43 278.709 72.24C277.609 71.18 276.459 70.62 278.089 68.76C286.939 58.66 297.799 52.18 311.339 52.75C323.349 53.25 331.169 59.22 336.199 70.2701C339.909 78.42 342.609 86.71 340.299 95.81C337.029 108.63 328.949 116.76 316.339 120.61C310.939 122.26 305.809 124.64 300.339 126.18C297.229 127.05 293.749 128.81 294.449 133.08C295.159 137.38 298.759 138.16 302.409 138.4C303.729 138.49 305.109 138.45 306.389 138.15C314.659 136.16 320.969 138.82 325.459 145.98C330.369 153.82 332.399 162.3 331.749 171.59C330.889 183.9 324.889 193.44 316.529 201.95C311.429 207.14 309.789 207.35 303.559 203.38C297.549 199.55 291.409 195.92 284.439 194C280.349 192.87 276.519 193.42 274.239 197.06C271.859 200.86 271.949 205.1 275.259 208.58C277.409 210.84 279.459 213.32 282.509 214.53C283.789 215.04 285.239 215.91 284.889 217.33C284.529 218.81 282.689 218.61 281.429 218.65C277.919 218.7 274.419 218.63 270.929 218.63ZM240.769 173.06C240.619 178.04 241.469 182.77 243.119 187C245.469 193.02 249.189 198.39 255.319 201.5C258.359 203.04 260.379 200.99 262.509 199.54C263.979 198.53 264.829 197.03 263.789 195.23C262.129 192.35 261.709 188.87 259.509 186.26C257.309 183.65 257.649 182.44 261.149 181.11C273.039 176.59 282.799 169.28 287.309 156.89C291.539 145.26 291.369 133.57 286.299 121.99C284.839 118.65 281.339 115.18 284.459 111.07C286.949 107.8 289.719 104.73 292.489 101.68C299.009 94.51 307.939 90.45 315.239 84.23C318.589 81.38 318.049 78.93 315.919 76.18C313.359 72.86 309.029 72.7801 303.679 75.8801C294.519 81.2001 286.119 87.39 279.299 95.7001C273.229 103.09 273.039 102.81 264.289 98.53C261.029 96.93 257.579 95.59 254.069 94.64C248.519 93.14 247.409 97.9801 245.789 101.38C244.289 104.51 247.659 105.43 249.409 106.06C253.089 107.37 255.989 109.91 259.169 111.86C266.309 116.23 272.779 122.14 274.719 130.43C278.149 145.03 276.569 157.56 260.459 165.69C259.459 166.19 258.359 167.24 257.319 166.3C256.249 165.34 257.099 163.99 257.679 163.12C260.559 158.76 261.939 153.79 263.609 148.94C264.169 147.32 265.529 145.6 263.229 144.1C261.169 142.75 259.319 140.62 256.529 141.92C254.599 142.82 252.729 143.88 251.239 145.55C244.179 153.48 241.449 163 240.769 173.06ZM299.379 59.49C302.699 59.49 306.019 59.42 309.339 59.5C318.369 59.74 326.739 68.54 327.319 77.49C327.909 86.6 324.209 94.28 320.389 102C318.249 106.32 315.759 110.47 313.049 115.38C333.649 105.83 341.309 93.66 334.289 75.26C327.909 58.53 314.929 52.76 299.379 59.49ZM322.129 186.11C322.599 185.89 323.009 185.83 323.149 185.6C323.579 184.91 323.919 184.15 324.269 183.41C330.459 170.11 325.989 158.35 319.309 146.72C316.859 142.46 314.869 140.17 309.469 142.82C302.579 146.2 302.389 145.73 307.149 152.26C312.639 159.78 319.789 166.29 320.959 176.37C321.339 179.58 320.579 182.99 322.129 186.11ZM258.939 18.1C264.539 22.33 269.739 26.64 273.529 32.6C275.369 35.49 274.569 40.85 279.189 41.04C282.849 41.19 286.589 39.45 290.289 38.55C290.769 38.43 291.299 38.43 291.749 38.24C292.619 37.88 293.139 37.26 292.499 36.32C289.249 31.58 286.599 26.49 282.239 22.45C275.359 16.08 267.169 17.65 258.939 18.1ZM271.859 140.84C269.799 126.89 261.879 118.15 250.519 112.06C248.819 111.15 246.669 110.62 246.549 113.57C246.319 119.62 246.689 125.58 252.569 129.32C254.369 130.46 256.329 131.35 258.159 132.45C262.589 135.13 266.979 137.85 271.859 140.84Z" fill="#4EAE34"/>
<path d="M112.669 135.51C114.899 133.34 116.579 131.44 117.959 129.54C121.519 124.67 125.219 126.3 129.229 128.26C131.009 129.13 132.769 130.05 134.589 130.83C139.989 133.14 142.889 136.22 142.539 143.07C141.929 154.96 145.169 166.1 154.149 174.74C156.469 176.97 159.089 179.83 162.549 178.93C168.329 177.42 169.369 173.03 165.739 168.15C163.579 165.25 161.259 162.41 159.509 159.27C153.679 148.78 155.279 135.13 163.959 126.83C167.789 123.17 172.449 119.97 178.559 120.37C183.699 120.71 188.879 120.41 194.049 120.45C197.299 120.47 200.089 119.82 200.809 116.06C201.559 112.14 200.529 109.13 196.299 107.96C186.719 105.32 177.249 105.38 167.969 109.25C162.269 111.63 157.099 114.86 152.869 119.39C148.349 124.22 143.799 121.45 139.559 119.32C131.069 115.08 123.659 109.59 118.549 101.16C116.319 97.49 115.769 93.71 115.419 89.84C114.009 73.93 122.999 57.72 139.309 52.25C141.979 51.35 141.989 53.04 142.709 54.43C144.709 58.25 144.669 62.74 147.179 66.49C148.839 68.97 150.529 70.03 153.289 69.37C156.059 68.7 157.529 66.81 157.629 63.99C157.689 62.34 157.459 60.67 157.389 59.01C157.089 52.38 156.899 45.82 157.669 39.12C159.169 26.09 174.569 18.55 184.059 17.55C194.939 16.41 204.539 19.44 212.279 26.97C216.619 31.19 219.519 36.37 220.049 43.07C221.069 55.9 217.329 66.46 207.979 75.22C203.439 79.47 197.659 80.15 192.029 81.26C189.299 81.8 189.829 79.61 189.809 77.99C189.719 71.69 191.429 65.45 190.059 59.08C189.409 56.05 188.289 53.33 186.539 50.93C184.979 48.78 182.609 47.78 179.909 48.74C177.359 49.65 176.589 51.64 176.709 54.28C176.869 58.1 176.759 61.94 176.749 65.77C176.719 76.64 169.509 84.28 158.559 84.4C152.259 84.47 145.959 83.64 139.659 83.22C137.589 83.08 134.999 81.99 134.149 84.92C133.359 87.65 133.149 90.64 135.649 92.81C137.659 94.55 139.829 96.44 142.449 96.84C150.679 98.1 159.099 98.95 167.109 96.21C173.979 93.86 180.529 92.2 187.999 93.24C196.229 94.39 204.629 93.93 212.209 89.5201C214.219 88.3501 215.939 88.01 217.939 90.03C231.789 104 231.379 117.59 221.099 132.77C214.999 141.77 207.299 142.91 196.639 138.01C193.769 136.69 190.959 135.26 187.809 134.65C184.039 133.92 181.779 135.65 180.359 138.95C178.919 142.31 180.739 144.4 183.279 146.02C187.339 148.6 191.819 150.37 195.999 152.77C210.289 160.98 211.399 169.56 209.349 184.76C208.069 194.24 199.689 202.74 187.019 205.18C168.869 208.67 151.409 206.89 134.189 200.17C118.839 194.17 107.209 178.17 106.989 161.68C106.959 159.39 107.519 158.37 109.989 158.34C114.329 158.29 118.609 157.52 122.719 156.17C126.899 154.8 129.749 151.73 129.539 147.36C129.339 143.13 126.709 140.23 122.189 139.14C119.139 138.42 116.299 136.93 112.669 135.51ZM179.339 199.63C189.219 201.56 197.179 197.17 202.359 187.38C207.419 177.81 204.579 168.37 198.439 161.79C191.919 154.8 181.569 152.74 175.429 145C175.119 144.61 174.109 144.44 173.609 144.64C172.719 144.99 172.639 146.08 172.949 146.78C174.589 150.56 175.949 154.6 178.799 157.61C182.419 161.44 185.989 165.3 189.109 169.53C195.049 177.57 194.439 183.61 187.679 190.82C184.949 193.76 180.789 195.41 179.339 199.63ZM187.349 20.94C187.339 22.69 188.639 22.76 189.299 23.42C194.969 29.12 200.349 34.91 200.749 43.65C201.179 53.04 201.019 62.29 196.509 70.9C195.979 71.92 195.369 73.16 196.259 74.16C197.289 75.31 198.379 74.15 199.409 73.81C204.819 72.05 208.659 68.61 211.429 63.55C222.099 44.08 209.239 21.06 187.349 20.94ZM210.839 135.14C214.319 134.24 215.259 130.81 217.119 128.48C224.739 118.92 224.459 105 216.679 96.9501C215.499 95.7301 214.779 92.05 211.939 94.75C209.759 96.82 205.649 97.44 207.779 102.73C211.589 112.17 213.529 122.14 210.719 132.42C210.499 133.23 209.789 134.24 210.839 135.14ZM157.319 195.22C157.849 195.1 158.999 194.9 160.099 194.56C161.329 194.18 163.069 194.11 163.339 192.63C163.669 190.83 161.539 191.09 160.639 190.25C157.319 187.13 152.929 185.7 149.279 183.11C145.269 180.28 140.929 177.82 138.279 173.39C137.619 172.28 136.389 171.41 134.889 171.81C134.129 172.02 134.299 172.76 134.309 173.44C134.379 184.83 145.299 195.48 157.319 195.22Z" fill="#4EAE34"/>
<path d="M240.769 173.06C241.449 162.99 244.179 153.47 251.259 145.56C252.759 143.89 254.619 142.83 256.549 141.93C259.339 140.63 261.179 142.76 263.249 144.11C265.549 145.61 264.189 147.33 263.629 148.95C261.959 153.8 260.579 158.76 257.699 163.13C257.119 164.01 256.279 165.35 257.339 166.31C258.379 167.25 259.479 166.2 260.479 165.7C276.589 157.57 278.169 145.04 274.739 130.44C272.799 122.15 266.319 116.24 259.189 111.87C256.009 109.92 253.109 107.38 249.429 106.07C247.679 105.45 244.309 104.53 245.809 101.39C247.429 97.99 248.539 93.15 254.089 94.65C257.589 95.6 261.039 96.94 264.309 98.54C273.059 102.82 273.259 103.11 279.319 95.71C286.139 87.4 294.539 81.21 303.699 75.89C309.039 72.79 313.369 72.86 315.939 76.19C318.069 78.94 318.599 81.39 315.259 84.24C307.959 90.45 299.039 94.52 292.509 101.69C289.739 104.74 286.959 107.8 284.479 111.08C281.359 115.19 284.859 118.66 286.319 122C291.389 133.57 291.559 145.27 287.329 156.9C282.819 169.29 273.059 176.6 261.169 181.12C257.669 182.45 257.329 183.66 259.529 186.27C261.729 188.89 262.149 192.36 263.809 195.24C264.849 197.04 263.999 198.54 262.529 199.55C260.399 201.01 258.379 203.06 255.339 201.51C249.209 198.4 245.489 193.03 243.139 187.01C241.469 182.77 240.619 178.04 240.769 173.06Z" fill="#511E53"/>
<path d="M299.379 59.49C314.919 52.76 327.909 58.53 334.289 75.26C341.309 93.66 333.659 105.84 313.049 115.38C315.759 110.47 318.249 106.33 320.389 102C324.209 94.28 327.909 86.6 327.319 77.49C326.739 68.54 318.369 59.74 309.339 59.5C306.029 59.42 302.699 59.49 299.379 59.49Z" fill="#F6DFE0"/>
<path d="M322.129 186.11C320.579 182.99 321.339 179.58 320.959 176.37C319.789 166.29 312.639 159.77 307.149 152.26C302.379 145.73 302.569 146.21 309.469 142.82C314.879 140.17 316.869 142.46 319.309 146.72C325.989 158.35 330.469 170.11 324.269 183.41C323.919 184.15 323.579 184.91 323.149 185.6C323.019 185.83 322.599 185.89 322.129 186.11Z" fill="#F6DFE0"/>
<path d="M271.859 140.84C266.979 137.85 262.579 135.12 258.149 132.46C256.319 131.36 254.359 130.47 252.559 129.33C246.679 125.59 246.309 119.63 246.539 113.58C246.649 110.62 248.799 111.15 250.509 112.07C261.889 118.16 269.799 126.89 271.859 140.84Z" fill="#F6DFE0"/>
<path d="M179.339 199.63C180.789 195.4 184.949 193.76 187.689 190.83C194.449 183.61 195.059 177.58 189.119 169.54C185.999 165.31 182.429 161.45 178.809 157.62C175.959 154.6 174.599 150.56 172.959 146.79C172.659 146.09 172.729 145 173.619 144.65C174.119 144.45 175.129 144.63 175.439 145.01C181.579 152.75 191.919 154.81 198.449 161.8C204.579 168.38 207.429 177.82 202.369 187.39C197.179 197.17 189.219 201.56 179.339 199.63Z" fill="#F6DFE0"/>
<path d="M187.349 20.94C209.239 21.06 222.099 44.08 211.429 63.55C208.659 68.6 204.819 72.05 199.409 73.81C198.389 74.14 197.289 75.3 196.259 74.16C195.359 73.16 195.969 71.92 196.509 70.9C201.019 62.29 201.179 53.04 200.749 43.65C200.349 34.91 194.969 29.12 189.299 23.42C188.639 22.76 187.339 22.69 187.349 20.94Z" fill="#F6DFE0"/>
<path d="M210.839 135.14C209.789 134.24 210.499 133.23 210.719 132.42C213.529 122.14 211.589 112.17 207.779 102.73C205.649 97.4401 209.759 96.8201 211.939 94.7501C214.789 92.0501 215.509 95.7301 216.679 96.9501C224.459 105 224.739 118.92 217.119 128.48C215.259 130.81 214.319 134.24 210.839 135.14Z" fill="#F6DFE0"/>
<path d="M157.319 195.22C145.299 195.48 134.379 184.83 134.299 173.45C134.299 172.76 134.119 172.02 134.879 171.82C136.379 171.41 137.609 172.28 138.269 173.4C140.919 177.83 145.259 180.29 149.269 183.12C152.919 185.7 157.309 187.14 160.629 190.26C161.519 191.1 163.659 190.84 163.329 192.64C163.059 194.11 161.329 194.18 160.089 194.57C158.999 194.9 157.849 195.1 157.319 195.22Z" fill="#F6DFE0"/>
</svg>
