<svg width="466" height="378" viewBox="0 0 466 378" fill="none" xmlns="http://www.w3.org/2000/svg">
<path d="M444.079 173.83C445.679 185.72 441.759 198.94 438.729 212.12C436.639 221.21 423.789 228.18 413.249 224.28C401.249 219.84 395.479 207.91 402.729 196.2C404.509 193.33 407.269 190.89 411.259 189.93C424.119 186.83 424.189 186.64 424.679 173.34C424.969 165.37 424.899 157.45 420.339 150.23C418.059 146.61 415.149 144.06 411.159 143.63C406.249 143.11 401.249 142.82 396.309 144.23C379.959 148.9 365.009 156.52 350.289 164.89C345.499 167.62 345.089 170.49 345.549 175.07C347.589 195.42 339.529 211.88 325.289 225.73C322.539 228.41 322.879 229.68 325.639 232.36C334.329 240.81 342.069 250.38 344.429 262.5C346.619 273.7 346.749 285.07 342.439 296.31C338.909 305.5 333.319 313.07 326.609 319.75C322.259 324.08 317.049 327.84 311.329 330.51C307.779 332.17 307.549 333.9 310.279 336.77C314.149 340.83 317.179 345.57 320.069 350.38C324.559 357.86 323.419 367.48 318.409 372.91C312.939 378.85 300.819 379.87 292.949 371.94C281.259 360.16 273.169 346.66 275.259 328.94C275.839 324.02 278.649 322.15 282.599 320.84C294.869 316.77 307.209 312.59 315.799 302.23C328.519 286.89 330.959 272.59 318.929 255.15C315.729 250.51 311.279 247.08 307.879 242.65C305.319 239.32 301.509 240.47 298.689 241.67C286.769 246.7 274.289 246.56 261.829 245.98C253.239 245.58 245.539 241.6 237.779 238.28C229.979 234.94 223.209 230.12 217.869 223.34C215.419 220.23 212.119 221.14 209.419 223.08C196.889 232.08 182.649 233.84 167.799 233.23C162.309 233.01 156.799 233 151.329 232.58C146.559 232.22 143.959 235.57 141.429 238.39C133.779 246.93 126.769 256.02 122.749 266.94C119.029 277.05 119.419 286.96 126.449 295.52C129.559 299.3 134.209 300.91 139.539 299.48C149.669 296.77 158.169 291.28 166.309 284.9C171.109 281.13 174.979 276.24 180.469 273.33C185.739 270.53 191.899 272.21 195.399 277.3C204.079 289.91 206.839 303.97 205.619 318.98C205.069 325.8 197.399 334.39 191.689 334.85C181.739 335.66 176.069 333.82 172.419 322.83C171.269 319.36 169.939 315.95 168.929 312.44C168.199 309.9 167.269 309.32 164.739 310.64C157.099 314.62 149.289 318.08 140.569 319.28C126.499 321.22 114.079 314.14 107.139 302.38C98.4587 287.66 99.4787 272.34 105.359 256.99C109.529 246.09 116.539 236.89 123.939 228.1C126.619 224.92 125.499 224.14 122.819 222.79C113.169 217.92 105.349 211.05 100.269 201.41C96.6087 194.47 94.4187 187.02 93.9287 179.2C93.3087 169.21 91.9087 168.26 81.8887 166.2C67.5687 163.26 54.6787 157.33 45.1787 145.43C35.7587 133.63 31.6787 120.18 30.8387 105.27C30.2787 95.4 30.4187 85.54 32.2487 75.99C34.0087 66.81 37.8587 57.97 42.8087 49.97C46.3287 44.29 49.9387 38.55 55.4687 34.21C58.3987 31.91 60.9687 30.21 64.7087 30.51C66.3687 30.64 68.0687 30.73 69.6987 30.5C76.8787 29.46 81.3187 33.13 85.2887 38.6C90.7787 46.16 87.7887 57.61 80.6287 63.29C74.3487 68.27 67.4987 68.12 60.3887 66.11C57.6687 65.34 57.0387 65.65 55.6587 68.66C49.4687 82.13 49.5087 96.19 51.1487 110.24C52.5087 121.96 57.8087 131.82 67.9487 139.02C75.6687 144.5 84.0087 147.23 93.1387 148.55C96.1787 148.99 98.3387 148.15 99.9987 145.74C103.439 140.72 106.759 135.61 110.309 130.67C111.859 128.52 110.879 126.82 109.799 125.2C108.499 123.26 107.609 121.13 106.489 119.13C98.1687 104.23 100.769 89.6 107.889 75.43C114.209 62.83 124.269 54.37 138.529 51.67C142.119 50.99 143.779 49.37 145.289 45.35C151.769 28.03 165.389 18.33 184.919 16.56C200.609 15.14 213.179 21.61 224.189 32.02C225.799 33.54 226.419 34.82 228.989 32.1C238.079 22.46 248.289 14.38 262.379 13.15C271.319 12.37 279.619 14.7 287.319 18.54C294.849 22.29 301.059 27.93 305.799 35.18C308.159 38.79 308.819 42.86 310.339 46.67C311.619 49.86 313.199 51.84 316.779 52.7C322.019 53.97 327.279 55.1 332.059 58.17C341.049 63.94 346.759 71.99 350.309 81.78C353.269 89.96 355.009 98.33 354.349 107.18C353.409 119.86 347.439 129.7 338.129 137.86C336.889 138.95 335.329 139.75 334.309 141.01C333.209 142.37 329.789 142.55 331.289 145.23C332.759 147.86 335.529 148.64 338.569 148.2C342.989 147.56 346.499 144.68 349.949 142.48C361.639 135.02 374.349 129.78 387.459 126.22C401.089 122.52 415.649 121.11 428.199 129.86C438.289 136.9 443.009 147.7 444.049 159.91C444.369 163.85 444.079 167.87 444.079 173.83ZM270.929 231.63C274.419 231.63 277.919 231.7 281.409 231.59C282.669 231.55 284.499 231.75 284.869 230.27C285.219 228.86 283.769 227.98 282.489 227.47C279.429 226.26 277.389 223.78 275.239 221.52C271.929 218.04 271.839 213.8 274.219 210C276.499 206.36 280.329 205.81 284.419 206.94C291.389 208.86 297.529 212.49 303.539 216.32C309.769 220.29 311.419 220.08 316.509 214.89C324.869 206.38 330.869 196.85 331.729 184.53C332.379 175.24 330.349 166.77 325.439 158.92C320.959 151.76 314.639 149.1 306.369 151.09C305.099 151.4 303.709 151.43 302.389 151.34C298.739 151.1 295.139 150.32 294.429 146.02C293.729 141.76 297.209 139.99 300.319 139.12C305.789 137.59 310.919 135.2 316.319 133.55C328.929 129.7 337.019 121.57 340.279 108.75C342.599 99.65 339.889 91.36 336.179 83.21C331.149 72.16 323.329 66.2 311.319 65.69C297.779 65.12 286.909 71.61 278.069 81.7C276.439 83.56 277.589 84.12 278.689 85.18C280.969 87.37 283.229 89.58 285.339 91.93C286.279 92.97 287.469 94.2 286.159 95.87C283.559 99.18 280.889 101.44 276.039 99.87C260.839 94.95 250.259 77.97 255.959 62.03C257.199 58.58 259.269 58.22 261.719 57.82C264.239 57.4 266.139 58.45 266.839 61.33C267.259 63.06 268.479 64.58 269.169 66.27C270.179 68.72 271.739 68.64 273.469 67.25C280.169 61.86 287.409 57.4 295.369 54.13C296.539 53.65 297.519 52.73 297.099 51.45C295.789 47.54 295.109 43.05 292.699 39.93C283.569 28.11 265.519 21.83 252.779 30.03C250.009 31.81 247.319 33.74 244.759 35.71C238.679 40.4 233.749 46.5 233.939 54.43C234.239 66.39 232.259 77.55 226.349 87.96C225.199 89.98 226.159 91.28 227.509 92.77C233.679 99.58 239.329 106.9 240.779 116.21C243.579 134.22 238.979 149.76 224.199 161.47C218.339 166.11 217.739 167.32 220.429 173.51C223.879 181.46 224.859 189.57 222.859 197.88C220.899 206.03 223.709 212.38 229.769 217.25C241.739 226.91 255.179 232.78 270.929 231.63ZM112.669 148.51C116.299 149.94 119.139 151.43 122.169 152.15C126.689 153.24 129.319 156.14 129.519 160.37C129.729 164.74 126.879 167.8 122.699 169.18C118.579 170.53 114.299 171.3 109.969 171.35C107.499 171.38 106.939 172.4 106.969 174.69C107.189 191.18 118.819 207.19 134.169 213.18C151.389 219.91 168.849 221.68 186.999 218.19C199.669 215.76 208.049 207.25 209.329 197.77C211.379 182.57 210.269 173.99 195.979 165.78C191.789 163.37 187.309 161.6 183.259 159.03C180.719 157.42 178.899 155.32 180.339 151.96C181.749 148.67 184.019 146.93 187.789 147.66C190.939 148.27 193.749 149.7 196.619 151.02C207.279 155.92 214.979 154.78 221.079 145.78C231.359 130.61 231.769 117.01 217.919 103.04C215.919 101.02 214.199 101.36 212.189 102.53C204.609 106.94 196.209 107.39 187.979 106.25C180.509 105.21 173.959 106.87 167.089 109.22C159.079 111.96 150.669 111.12 142.429 109.85C139.799 109.45 137.639 107.56 135.629 105.82C133.119 103.65 133.339 100.66 134.129 97.93C134.969 95 137.569 96.1 139.639 96.23C145.939 96.65 152.249 97.48 158.539 97.41C169.489 97.29 176.689 89.64 176.729 78.78C176.739 74.95 176.849 71.11 176.689 67.29C176.579 64.64 177.339 62.66 179.889 61.75C182.589 60.79 184.959 61.79 186.519 63.94C188.269 66.34 189.389 69.06 190.039 72.09C191.409 78.46 189.699 84.7 189.789 91C189.809 92.63 189.279 94.81 192.009 94.27C197.639 93.16 203.419 92.48 207.959 88.23C217.309 79.47 221.049 68.91 220.029 56.08C219.499 49.38 216.599 44.2 212.259 39.98C204.519 32.45 194.919 29.42 184.039 30.56C174.549 31.56 159.149 39.09 157.649 52.13C156.879 58.83 157.069 65.38 157.369 72.02C157.439 73.68 157.669 75.34 157.609 77C157.509 79.82 156.039 81.71 153.269 82.38C150.509 83.04 148.829 81.98 147.159 79.5C144.649 75.76 144.689 71.26 142.689 67.44C141.959 66.05 141.959 64.37 139.289 65.26C122.979 70.73 113.989 86.94 115.399 102.85C115.739 106.72 116.299 110.5 118.529 114.17C123.639 122.6 131.049 128.08 139.539 132.33C143.789 134.45 148.339 137.22 152.849 132.4C157.089 127.87 162.259 124.64 167.949 122.26C177.229 118.39 186.699 118.32 196.279 120.97C200.519 122.14 201.539 125.15 200.789 129.07C200.069 132.84 197.289 133.49 194.029 133.46C188.869 133.42 183.679 133.72 178.539 133.38C172.429 132.98 167.769 136.17 163.939 139.84C155.259 148.14 153.659 161.79 159.489 172.28C161.239 175.42 163.559 178.26 165.719 181.16C169.349 186.04 168.309 190.43 162.529 191.94C159.079 192.84 156.449 189.98 154.129 187.75C145.149 179.11 141.909 167.97 142.519 156.08C142.869 149.23 139.969 146.15 134.569 143.84C132.749 143.06 130.989 142.14 129.209 141.27C125.199 139.31 121.509 137.68 117.939 142.55C116.579 144.43 114.909 146.33 112.669 148.51Z" fill="#511E53"/>
<path d="M13.7086 81.5801C14.5786 92.9101 12.8886 103.96 12.9386 115.05C12.9986 128.15 16.4086 140.2 23.7386 150.87C28.1586 157.3 34.3186 162.29 41.0286 166.46C44.8386 168.83 48.7886 171.06 52.5686 175.12C47.2586 175.6 42.8486 175.88 38.6586 174.4C27.3286 170.38 17.4786 164.1 10.8886 153.8C0.198627 137.09 -3.03137 119.3 3.03863 99.9301C4.59863 94.9501 7.21863 90.6701 9.15863 85.9901C9.96863 84.0201 11.0986 82.1701 13.7086 81.5801Z" fill="#511E53"/>
<path d="M405.129 107.05C416.799 97.72 441.559 103.38 452.609 115.42C465.559 129.53 471.129 157.5 459.419 170.72C457.919 161.46 455.329 153.03 452.999 144.52C449.199 130.61 442.239 119.47 427.859 113.76C420.579 110.85 412.589 110.82 405.129 107.05Z" fill="#511E53"/>
<path d="M270.929 231.63C255.179 232.79 241.739 226.91 229.789 217.31C223.729 212.44 220.919 206.09 222.879 197.94C224.869 189.64 223.899 181.52 220.449 173.57C217.759 167.37 218.359 166.17 224.219 161.53C238.999 149.82 243.599 134.28 240.799 116.27C239.349 106.95 233.699 99.6401 227.529 92.8301C226.189 91.3501 225.229 90.0401 226.369 88.0201C232.289 77.6101 234.259 66.4501 233.959 54.4901C233.759 46.5701 238.699 40.4701 244.779 35.7701C247.339 33.8001 250.029 31.8701 252.799 30.0901C265.539 21.8801 283.599 28.1601 292.719 39.9901C295.129 43.1101 295.809 47.5901 297.119 51.5101C297.549 52.7901 296.569 53.7001 295.389 54.1901C287.429 57.4601 280.189 61.9301 273.489 67.3101C271.759 68.7001 270.199 68.7801 269.189 66.3301C268.499 64.6501 267.279 63.1301 266.859 61.3901C266.159 58.5001 264.259 57.4601 261.739 57.8801C259.299 58.2801 257.219 58.6401 255.979 62.0901C250.269 78.0301 260.859 95.0101 276.059 99.9301C280.899 101.5 283.579 99.2401 286.179 95.9301C287.489 94.2601 286.299 93.0301 285.359 91.9901C283.249 89.6501 280.979 87.4301 278.709 85.2401C277.609 84.1801 276.459 83.6201 278.089 81.7601C286.939 71.6601 297.799 65.1801 311.339 65.7501C323.349 66.2501 331.169 72.2201 336.199 83.2701C339.909 91.4201 342.609 99.7101 340.299 108.81C337.029 121.63 328.949 129.76 316.339 133.61C310.939 135.26 305.809 137.64 300.339 139.18C297.229 140.05 293.749 141.81 294.449 146.08C295.159 150.38 298.759 151.16 302.409 151.4C303.729 151.49 305.109 151.45 306.389 151.15C314.659 149.16 320.969 151.82 325.459 158.98C330.369 166.82 332.399 175.3 331.749 184.59C330.889 196.9 324.889 206.44 316.529 214.95C311.429 220.14 309.789 220.35 303.559 216.38C297.549 212.55 291.409 208.92 284.439 207C280.349 205.87 276.519 206.42 274.239 210.06C271.859 213.86 271.949 218.1 275.259 221.58C277.409 223.84 279.459 226.32 282.509 227.53C283.789 228.04 285.239 228.91 284.889 230.33C284.529 231.81 282.689 231.61 281.429 231.65C277.919 231.7 274.419 231.63 270.929 231.63ZM240.769 186.06C240.619 191.04 241.469 195.77 243.119 200C245.469 206.02 249.189 211.39 255.319 214.5C258.359 216.04 260.379 213.99 262.509 212.54C263.979 211.53 264.829 210.03 263.789 208.23C262.129 205.35 261.709 201.87 259.509 199.26C257.309 196.65 257.649 195.44 261.149 194.11C273.039 189.59 282.799 182.28 287.309 169.89C291.539 158.26 291.369 146.57 286.299 134.99C284.839 131.65 281.339 128.18 284.459 124.07C286.949 120.8 289.719 117.73 292.489 114.68C299.009 107.51 307.939 103.45 315.239 97.2301C318.589 94.3801 318.049 91.9301 315.919 89.1801C313.359 85.8601 309.029 85.7801 303.679 88.8801C294.519 94.2001 286.119 100.39 279.299 108.7C273.229 116.09 273.039 115.81 264.289 111.53C261.029 109.93 257.579 108.59 254.069 107.64C248.519 106.14 247.409 110.98 245.789 114.38C244.289 117.51 247.659 118.43 249.409 119.06C253.089 120.37 255.989 122.91 259.169 124.86C266.309 129.23 272.779 135.14 274.719 143.43C278.149 158.03 276.569 170.56 260.459 178.69C259.459 179.19 258.359 180.24 257.319 179.3C256.249 178.34 257.099 176.99 257.679 176.12C260.559 171.76 261.939 166.79 263.609 161.94C264.169 160.32 265.529 158.6 263.229 157.1C261.169 155.75 259.319 153.62 256.529 154.92C254.599 155.82 252.729 156.88 251.239 158.55C244.179 166.48 241.449 176 240.769 186.06ZM299.379 72.4901C302.699 72.4901 306.019 72.4201 309.339 72.5001C318.369 72.7401 326.739 81.5401 327.319 90.4901C327.909 99.6001 324.209 107.28 320.389 115C318.249 119.32 315.759 123.47 313.049 128.38C333.649 118.83 341.309 106.66 334.289 88.2601C327.909 71.5301 314.929 65.7601 299.379 72.4901ZM322.129 199.11C322.599 198.89 323.009 198.83 323.149 198.6C323.579 197.91 323.919 197.15 324.269 196.41C330.459 183.11 325.989 171.35 319.309 159.72C316.859 155.46 314.869 153.17 309.469 155.82C302.579 159.2 302.389 158.73 307.149 165.26C312.639 172.78 319.789 179.29 320.959 189.37C321.339 192.58 320.579 195.99 322.129 199.11ZM258.939 31.1001C264.539 35.3301 269.739 39.6401 273.529 45.6001C275.369 48.4901 274.569 53.8501 279.189 54.0401C282.849 54.1901 286.589 52.4501 290.289 51.5501C290.769 51.4301 291.299 51.4301 291.749 51.2401C292.619 50.8801 293.139 50.2601 292.499 49.3201C289.249 44.5801 286.599 39.4901 282.239 35.4501C275.359 29.0801 267.169 30.6501 258.939 31.1001ZM271.859 153.84C269.799 139.89 261.879 131.15 250.519 125.06C248.819 124.15 246.669 123.62 246.549 126.57C246.319 132.62 246.689 138.58 252.569 142.32C254.369 143.46 256.329 144.35 258.159 145.45C262.589 148.13 266.979 150.85 271.859 153.84Z" fill="#E9555E"/>
<path d="M112.669 148.51C114.899 146.34 116.579 144.44 117.959 142.54C121.519 137.67 125.219 139.3 129.229 141.26C131.009 142.13 132.769 143.05 134.589 143.83C139.989 146.14 142.889 149.22 142.539 156.07C141.929 167.96 145.169 179.1 154.149 187.74C156.469 189.97 159.089 192.83 162.549 191.93C168.329 190.42 169.369 186.03 165.739 181.15C163.579 178.25 161.259 175.41 159.509 172.27C153.679 161.78 155.279 148.13 163.959 139.83C167.789 136.17 172.449 132.97 178.559 133.37C183.699 133.71 188.879 133.41 194.049 133.45C197.299 133.47 200.089 132.82 200.809 129.06C201.559 125.14 200.529 122.13 196.299 120.96C186.719 118.32 177.249 118.38 167.969 122.25C162.269 124.63 157.099 127.86 152.869 132.39C148.349 137.22 143.799 134.45 139.559 132.32C131.069 128.08 123.659 122.59 118.549 114.16C116.319 110.49 115.769 106.71 115.419 102.84C114.009 86.93 122.999 70.72 139.309 65.25C141.979 64.35 141.989 66.04 142.709 67.43C144.709 71.25 144.669 75.74 147.179 79.49C148.839 81.97 150.529 83.03 153.289 82.37C156.059 81.7 157.529 79.81 157.629 76.99C157.689 75.34 157.459 73.67 157.389 72.01C157.089 65.38 156.899 58.82 157.669 52.12C159.169 39.09 174.569 31.55 184.059 30.55C194.939 29.41 204.539 32.44 212.279 39.97C216.619 44.19 219.519 49.37 220.049 56.07C221.069 68.9 217.329 79.46 207.979 88.22C203.439 92.47 197.659 93.15 192.029 94.26C189.299 94.8 189.829 92.61 189.809 90.99C189.719 84.69 191.429 78.45 190.059 72.08C189.409 69.05 188.289 66.33 186.539 63.93C184.979 61.78 182.609 60.78 179.909 61.74C177.359 62.65 176.589 64.64 176.709 67.28C176.869 71.1 176.759 74.94 176.749 78.77C176.719 89.64 169.509 97.28 158.559 97.4C152.259 97.47 145.959 96.64 139.659 96.22C137.589 96.08 134.999 94.99 134.149 97.92C133.359 100.65 133.149 103.64 135.649 105.81C137.659 107.55 139.829 109.44 142.449 109.84C150.679 111.1 159.099 111.95 167.109 109.21C173.979 106.86 180.529 105.2 187.999 106.24C196.229 107.39 204.629 106.93 212.209 102.52C214.219 101.35 215.939 101.01 217.939 103.03C231.789 117 231.379 130.59 221.099 145.77C214.999 154.77 207.299 155.91 196.639 151.01C193.769 149.69 190.959 148.26 187.809 147.65C184.039 146.92 181.779 148.65 180.359 151.95C178.919 155.31 180.739 157.4 183.279 159.02C187.339 161.6 191.819 163.37 195.999 165.77C210.289 173.98 211.399 182.56 209.349 197.76C208.069 207.24 199.689 215.74 187.019 218.18C168.869 221.67 151.409 219.89 134.189 213.17C118.839 207.17 107.209 191.17 106.989 174.68C106.959 172.39 107.519 171.37 109.989 171.34C114.329 171.29 118.609 170.52 122.719 169.17C126.899 167.8 129.749 164.73 129.539 160.36C129.339 156.13 126.709 153.23 122.189 152.14C119.139 151.42 116.299 149.93 112.669 148.51ZM179.339 212.63C189.219 214.56 197.179 210.17 202.359 200.38C207.419 190.81 204.579 181.37 198.439 174.79C191.919 167.8 181.569 165.74 175.429 158C175.119 157.61 174.109 157.44 173.609 157.64C172.719 157.99 172.639 159.08 172.949 159.78C174.589 163.56 175.949 167.6 178.799 170.61C182.419 174.44 185.989 178.3 189.109 182.53C195.049 190.57 194.439 196.61 187.679 203.82C184.949 206.76 180.789 208.41 179.339 212.63ZM187.349 33.94C187.339 35.69 188.639 35.76 189.299 36.42C194.969 42.12 200.349 47.91 200.749 56.65C201.179 66.04 201.019 75.29 196.509 83.9C195.979 84.92 195.369 86.16 196.259 87.16C197.289 88.31 198.379 87.15 199.409 86.81C204.819 85.05 208.659 81.61 211.429 76.55C222.099 57.08 209.239 34.06 187.349 33.94ZM210.839 148.14C214.319 147.24 215.259 143.81 217.119 141.48C224.739 131.92 224.459 118 216.679 109.95C215.499 108.73 214.779 105.05 211.939 107.75C209.759 109.82 205.649 110.44 207.779 115.73C211.589 125.17 213.529 135.14 210.719 145.42C210.499 146.23 209.789 147.24 210.839 148.14ZM157.319 208.22C157.849 208.1 158.999 207.9 160.099 207.56C161.329 207.18 163.069 207.11 163.339 205.63C163.669 203.83 161.539 204.09 160.639 203.25C157.319 200.13 152.929 198.7 149.279 196.11C145.269 193.28 140.929 190.82 138.279 186.39C137.619 185.28 136.389 184.41 134.889 184.81C134.129 185.02 134.299 185.76 134.309 186.44C134.379 197.83 145.299 208.48 157.319 208.22Z" fill="#E9555E"/>
<path d="M240.769 186.06C241.449 175.99 244.179 166.47 251.259 158.56C252.759 156.89 254.619 155.83 256.549 154.93C259.339 153.63 261.179 155.76 263.249 157.11C265.549 158.61 264.189 160.33 263.629 161.95C261.959 166.8 260.579 171.76 257.699 176.13C257.119 177.01 256.279 178.35 257.339 179.31C258.379 180.25 259.479 179.2 260.479 178.7C276.589 170.57 278.169 158.04 274.739 143.44C272.799 135.15 266.319 129.24 259.189 124.87C256.009 122.92 253.109 120.38 249.429 119.07C247.679 118.45 244.309 117.53 245.809 114.39C247.429 110.99 248.539 106.15 254.089 107.65C257.589 108.6 261.039 109.94 264.309 111.54C273.059 115.82 273.259 116.11 279.319 108.71C286.139 100.4 294.539 94.21 303.699 88.89C309.039 85.79 313.369 85.86 315.939 89.19C318.069 91.94 318.599 94.39 315.259 97.24C307.959 103.45 299.039 107.52 292.509 114.69C289.739 117.74 286.959 120.8 284.479 124.08C281.359 128.19 284.859 131.66 286.319 135C291.389 146.57 291.559 158.27 287.329 169.9C282.819 182.29 273.059 189.6 261.169 194.12C257.669 195.45 257.329 196.66 259.529 199.27C261.729 201.89 262.149 205.36 263.809 208.24C264.849 210.04 263.999 211.54 262.529 212.55C260.399 214.01 258.379 216.06 255.339 214.51C249.209 211.4 245.489 206.03 243.139 200.01C241.469 195.77 240.619 191.04 240.769 186.06Z" fill="#511E53"/>
<path d="M299.379 72.4901C314.919 65.7601 327.909 71.5301 334.289 88.2601C341.309 106.66 333.659 118.84 313.049 128.38C315.759 123.47 318.249 119.33 320.389 115C324.209 107.28 327.909 99.6001 327.319 90.4901C326.739 81.5401 318.369 72.7401 309.339 72.5001C306.029 72.4201 302.699 72.4901 299.379 72.4901Z" fill="#F6DFE0"/>
<path d="M322.129 199.11C320.579 195.99 321.339 192.58 320.959 189.37C319.789 179.29 312.639 172.77 307.149 165.26C302.379 158.73 302.569 159.21 309.469 155.82C314.879 153.17 316.869 155.46 319.309 159.72C325.989 171.35 330.469 183.11 324.269 196.41C323.919 197.15 323.579 197.91 323.149 198.6C323.019 198.83 322.599 198.89 322.129 199.11Z" fill="#F6DFE0"/>
<path d="M271.859 153.84C266.979 150.85 262.579 148.12 258.149 145.46C256.319 144.36 254.359 143.47 252.559 142.33C246.679 138.59 246.309 132.63 246.539 126.58C246.649 123.62 248.799 124.15 250.509 125.07C261.889 131.16 269.799 139.89 271.859 153.84Z" fill="#F6DFE0"/>
<path d="M179.339 212.63C180.789 208.4 184.949 206.76 187.689 203.83C194.449 196.61 195.059 190.58 189.119 182.54C185.999 178.31 182.429 174.45 178.809 170.62C175.959 167.6 174.599 163.56 172.959 159.79C172.659 159.09 172.729 158 173.619 157.65C174.119 157.45 175.129 157.63 175.439 158.01C181.579 165.75 191.919 167.81 198.449 174.8C204.579 181.38 207.429 190.82 202.369 200.39C197.179 210.17 189.219 214.56 179.339 212.63Z" fill="#F6DFE0"/>
<path d="M187.349 33.9399C209.239 34.0599 222.099 57.0799 211.429 76.5499C208.659 81.5999 204.819 85.0499 199.409 86.8099C198.389 87.1399 197.289 88.2999 196.259 87.1599C195.359 86.1599 195.969 84.9199 196.509 83.8999C201.019 75.2899 201.179 66.0399 200.749 56.6499C200.349 47.9099 194.969 42.1199 189.299 36.4199C188.639 35.7599 187.339 35.6899 187.349 33.9399Z" fill="#F6DFE0"/>
<path d="M210.839 148.14C209.789 147.24 210.499 146.23 210.719 145.42C213.529 135.14 211.589 125.17 207.779 115.73C205.649 110.44 209.759 109.82 211.939 107.75C214.789 105.05 215.509 108.73 216.679 109.95C224.459 118 224.739 131.92 217.119 141.48C215.259 143.81 214.319 147.24 210.839 148.14Z" fill="#F6DFE0"/>
<path d="M157.319 208.22C145.299 208.48 134.379 197.83 134.299 186.45C134.299 185.76 134.119 185.02 134.879 184.82C136.379 184.41 137.609 185.28 138.269 186.4C140.919 190.83 145.259 193.29 149.269 196.12C152.919 198.7 157.309 200.14 160.629 203.26C161.519 204.1 163.659 203.84 163.329 205.64C163.059 207.11 161.329 207.18 160.089 207.57C158.999 207.9 157.849 208.1 157.319 208.22Z" fill="#F6DFE0"/>
<path d="M203 124C203 138.737 199.059 151.804 193.004 161.007C186.916 170.261 179.188 175 171.5 175C163.812 175 156.084 170.261 149.996 161.007C143.941 151.804 140 138.737 140 124C140 109.263 143.941 96.1965 149.996 86.9926C156.084 77.7393 163.812 73 171.5 73C179.188 73 186.916 77.7393 193.004 86.9926C199.059 96.1965 203 109.263 203 124Z" fill="white" stroke="black" stroke-width="12"/>
<path d="M294 124C294 138.737 290.059 151.804 284.004 161.007C277.916 170.261 270.188 175 262.5 175C254.812 175 247.084 170.261 240.996 161.007C234.941 151.804 231 138.737 231 124C231 109.263 234.941 96.1965 240.996 86.9926C247.084 77.7393 254.812 73 262.5 73C270.188 73 277.916 77.7393 284.004 86.9926C290.059 96.1965 294 109.263 294 124Z" fill="white" stroke="black" stroke-width="12"/>
<rect x="266" y="8" width="7" height="97" fill="#3B1083"/>
<rect x="279" y="25" width="7" height="96" fill="#3B1083"/>
<rect x="292" width="7" height="96" fill="#3B1083"/>
</svg>
